<mxfile host="app.diagrams.net" modified="2024-04-11T00:21:21.145Z" agent="Mozilla/5.0 (Macintosh; Intel Mac OS X 10_15_7) AppleWebKit/605.1.15 (KHTML, like Gecko) Version/17.3.1 Safari/605.1.15" version="24.2.3" etag="QYpz4Y4taxMRV8bev41a" type="github">
  <diagram name="Page-1" id="UKC3qW7-llUg6yxV2T-u">
    <mxGraphModel>
      <root>
        <mxCell id="0" />
        <mxCell id="1" parent="0" />
      </root>
    </mxGraphModel>
  </diagram>
</mxfile>
